<svg version='1.1' x='0px' y='0px' width='300px' height='300px' id='heart'>
    <g class="heart-inner>
        <circle class="icon-circle" cx="149.5" cy="150" r="110"/>
        <path class="icon-heart" d="M211.001,134.484c0.1,1.232,0.166,2.486,0.166,3.779c0,26.437-34.414,64.086-61.379,83.918
	c-26.965-19.832-61.378-57.481-61.378-83.918c0-0.595,0.052-1.159,0.076-1.739c-0.071-0.882-0.204-1.782-0.204-2.641
	c0-26.442,21.572-40.238,35.954-40.238c14.382,0,23.113,9.199,25.425,12.933c2.312-3.734,11.043-12.933,25.425-12.933
	s35.954,13.796,35.954,40.238c0,0.229-0.049,0.473-0.055,0.704C210.988,134.552,210.998,134.517,211.001,134.484z M190.579,139.439
	c-0.463,0-0.911,0.07-1.345,0.177c-3.454,0.814-4.222,3.176-8.789,3.176h-20.481l-3.413-15.122c-0.803-3.595-3.413-3.78-3.413-3.78
	c-0.947,0.011-3.212,2.555-3.425,3.586l-3.402,19.097l-3.413-11.341c-0.278-0.934-2.585-0.373-3.467-0.373
	c-0.881,0,0.333-0.562,0.053,0.373l-3.787,7.223l-3.04-22.344c-0.475,0-6.678-1.109-6.827,0l-3.413,37.805l-6.827-15.122
	c-0.362-0.729-2.67,0-3.413,0h-10.24c-1.131,0-1.946,2.411-1.39,3.514c1.267,2.515,0.958,3.07,4.803,4.047h6.827l10.24,18.902h6.827
	V135.23l4.101,16.189c0.206,1,0.981,1.724,1.898,1.773c0.016,0,0.032,0,0.048,0c0.875,0,1.706-0.608,1.99-1.565l2.203-5.056
	l4.145,11.906c0.28,0.944,1.041,1.568,1.956,1.568c0.028,0,0.054-0.002,0.082-0.002c0.915-0.049,1.691-0.773,1.896-1.773
	l4.224-20.483l2.028,9.076c0.228,1.017,1.798,3.49,2.737,3.49h23.894h-3.413c4.571,0,8.752,1.838,12.213,2.648
	c0.394,0.098,0.799,0.152,1.219,0.161l0.116,0.013c3.389,0,6.138-3.077,6.138-6.869S193.968,139.439,190.579,139.439z"/>
    </g>
</svg>
